<?xml version="1.0" standalone="no"?>
<!DOCTYPE svg PUBLIC "-//W3C//DTD SVG 20010904//EN"
 "http://www.w3.org/TR/2001/REC-SVG-20010904/DTD/svg10.dtd">
<svg version="1.0" xmlns="http://www.w3.org/2000/svg"
 width="512.000000pt" height="512.000000pt" viewBox="0 0 512.000000 512.000000"
 preserveAspectRatio="xMidYMid meet">
<metadata>
Created by potrace 1.11, written by Peter Selinger 2001-2013
</metadata>
<g transform="translate(0.000000,512.000000) scale(0.100000,-0.100000)"
fill="#000000" stroke="none">
<path d="M2492 4812 c-354 -311 -639 -703 -795 -1092 -19 -47 -38 -94 -42
-105 -5 -11 -9 -22 -10 -25 0 -3 -11 -34 -22 -70 -23 -67 -54 -183 -58 -210
-1 -8 -4 -24 -8 -35 -40 -124 -62 -475 -45 -702 l6 -72 -125 -67 c-69 -37
-130 -73 -137 -79 -6 -6 -29 -22 -51 -35 -139 -83 -432 -340 -528 -462 -14
-18 -38 -46 -52 -63 -73 -81 -265 -359 -265 -383 0 -6 -4 -12 -8 -14 -14 -5
-138 -258 -185 -378 -25 -63 -61 -167 -80 -230 -38 -127 -82 -328 -73 -338 3
-3 6 -1 6 5 0 28 237 439 324 561 57 80 220 287 260 331 115 126 277 281 371
356 28 22 52 42 55 45 13 14 154 113 230 163 112 72 337 190 349 183 5 -4 13
-21 17 -38 3 -18 10 -39 15 -48 5 -8 20 -44 35 -80 59 -147 194 -386 270 -479
7 -9 34 -43 61 -76 75 -95 102 -123 206 -227 83 -82 97 -100 85 -111 -41 -41
-263 -183 -368 -235 -30 -15 -57 -29 -60 -32 -3 -3 -34 -19 -70 -34 -36 -16
-90 -40 -120 -53 -50 -23 -304 -111 -340 -118 -8 -2 -44 -11 -80 -20 -36 -10
-74 -19 -85 -21 -11 -1 -20 -3 -20 -4 0 -2 -19 -6 -125 -25 -93 -16 -108 -19
-200 -30 -196 -23 -284 -27 -565 -28 -137 0 -243 -2 -235 -4 8 -3 24 -8 35
-13 79 -34 374 -111 480 -125 37 -5 101 -15 125 -20 99 -19 487 -26 630 -11
378 40 795 175 1080 351 30 19 64 39 75 44 11 6 61 39 110 75 l90 64 65 -40
c97 -59 267 -143 382 -189 57 -22 112 -44 123 -49 21 -9 147 -50 168 -54 7 -2
19 -6 27 -9 8 -3 56 -15 105 -27 50 -11 106 -25 125 -30 19 -4 71 -14 115 -20
44 -6 91 -13 105 -16 34 -5 110 -13 195 -20 59 -4 329 -8 345 -5 3 1 43 3 90
6 47 2 101 6 120 9 19 3 61 8 94 11 75 9 86 10 241 41 121 24 168 39 127 40
-18 1 -117 10 -217 19 -33 3 -76 8 -95 11 -19 3 -53 7 -75 9 -43 3 -114 13
-155 20 -30 6 -70 12 -130 20 -25 4 -76 13 -115 22 -38 8 -81 17 -95 19 -142
28 -497 133 -585 174 -11 5 -60 26 -110 46 -119 48 -282 127 -373 181 -41 24
-76 43 -78 43 -5 0 -62 40 -87 60 -4 4 4 20 19 36 100 112 204 254 299 408 88
144 220 459 249 594 14 66 20 82 31 82 32 0 373 -165 395 -191 3 -3 32 -23 65
-44 109 -68 228 -167 350 -290 66 -66 132 -134 145 -150 176 -215 282 -380
412 -645 29 -58 57 -118 64 -135 7 -16 35 -86 64 -155 l51 -125 -5 90 c-3 50
-8 101 -10 115 -3 14 -8 45 -11 70 -6 58 -14 97 -25 139 -5 19 -7 38 -4 43 3
4 0 8 -6 8 -6 0 -9 3 -6 8 9 15 -71 277 -119 390 -244 566 -668 1003 -1209
1246 -53 24 -99 46 -101 48 -1 1 -5 80 -8 173 -3 94 -8 180 -11 192 -2 12 -7
46 -10 75 -4 29 -8 64 -11 78 -3 14 -8 39 -10 55 -51 288 -186 655 -333 900
-39 66 -143 227 -152 235 -3 3 -29 37 -58 75 -69 90 -148 180 -242 273 -83 82
-186 175 -201 180 -5 2 13 -33 41 -77 27 -44 50 -85 50 -90 0 -5 4 -11 8 -13
24 -10 302 -547 302 -583 0 -4 7 -21 15 -38 46 -102 150 -437 170 -552 2 -16
7 -41 10 -55 23 -112 48 -361 47 -470 -2 -160 -5 -231 -11 -234 -3 -2 -40 2
-81 9 -121 21 -140 24 -245 31 -190 13 -387 6 -552 -20 -21 -3 -54 -8 -73 -11
-51 -8 -268 -60 -327 -79 -24 -8 -26 -1 -38 104 -7 61 -6 346 1 390 3 19 6 42
6 50 -1 17 15 143 22 180 3 14 7 36 10 50 2 14 10 49 16 78 7 30 13 59 14 65
2 7 9 32 16 57 7 25 14 50 15 55 11 51 103 309 139 387 43 97 66 149 66 154 0
3 10 20 22 37 13 18 22 33 20 35 -2 1 22 51 54 110 76 142 75 141 107 189 15
24 27 45 27 48 0 3 20 36 45 75 25 39 45 75 45 80 0 6 4 10 9 10 5 0 11 9 14
20 3 11 4 20 4 20 -1 -1 -26 -22 -55 -48z m353 -2467 c72 -3 139 -7 150 -9 11
-2 46 -6 78 -11 34 -4 61 -13 64 -21 7 -19 -63 -231 -114 -344 -65 -145 -123
-250 -197 -359 -28 -40 -61 -88 -72 -105 -12 -17 -33 -44 -48 -59 -14 -15 -26
-30 -26 -32 0 -2 -14 -19 -30 -37 l-31 -33 -87 90 c-75 77 -111 118 -209 239
-21 26 -115 166 -132 196 -7 14 -20 37 -28 52 -8 15 -18 30 -24 33 -5 4 -9 13
-9 22 0 9 -6 24 -14 32 -14 17 -106 232 -106 248 0 5 6 10 13 10 6 1 39 9 72
18 62 17 185 41 265 51 25 3 56 7 70 10 14 2 75 7 135 10 61 4 111 8 113 9 2
2 11 1 20 -1 9 -1 76 -6 147 -9z"/>
</g>
</svg>
